<svg id="Logo_complet" data-name="Logo complet" xmlns="http://www.w3.org/2000/svg" viewBox="0 0 510.63 155.3"><defs><style>.cls-1{fill:#f97316;stroke:#f97316;}.cls-1,.cls-2,.cls-3{stroke-miterlimit:10;}.cls-1,.cls-2{stroke-width:3px;}.cls-2,.cls-3{fill:#4f46e5;stroke:#4f46e5;}.cls-3{font-size:98px;font-family:MongolianBaiti, Mongolian Baiti;}</style></defs><title>logo</title><g id="Symbole"><path class="cls-1" d="M103.57,266.75l-3.68,5.65L55.75,244,50.5,250l6.46,10L44,264.16l0,7.58,18.87-4.88,4.83,5.85L35.13,282.85l6.08-43.24L55.57,233Z" transform="translate(-33.31 -200.35)"/><path class="cls-1" d="M115.91,280.59l-3.54-5.74L156.89,247l-3.26-7.33-11.84,1.57q.9-6.72,1.81-13.45l-6.84-3.26-3.63,19.15-7.35,1.89,4.69-33.78L167,235.71l-.15,15.8Z" transform="translate(-33.31 -200.35)"/><path class="cls-2" d="M114,269l-6.75.07-.87-52.49-8-1-4.76,11L83.05,218l-6.32,4.18,14.54,13-2.17,7.27L62.57,221l39.34-19,13.46,8.27Z" transform="translate(-33.31 -200.35)"/><path class="cls-2" d="M101.07,289.25l3.69-5.65L148.89,312l5.25-6.07-6.46-10.05,12.95-4.08,0-7.58-18.87,4.88L137,283.29l32.57-10.14-6.08,43.24L149.08,323Z" transform="translate(-33.31 -200.35)"/><path class="cls-2" d="M88.74,275.41l3.54,5.74L47.76,309,51,316.32l11.84-1.57q-.9,6.72-1.81,13.45l6.84,3.26q1.8-9.58,3.62-19.15l7.35-1.89L74.17,344.2,37.63,320.29l.15-15.8Z" transform="translate(-33.31 -200.35)"/><path class="cls-1" d="M90.66,287l6.74-.07q.43,26.24.88,52.49l8,1,4.77-11L121.59,338l6.32-4.18-14.54-13,2.18-7.27L142.07,335l-39.33,19-13.46-8.27Z" transform="translate(-33.31 -200.35)"/></g><text id="Texte" class="cls-3" transform="translate(188.25 105.83)">Evauxie</text></svg>