<?xml version="1.0" encoding="utf-8"?>
<!-- Generator: Adobe Illustrator 26.1.0, SVG Export Plug-In . SVG Version: 6.00 Build 0)  -->
<svg version="1.1" xmlns="http://www.w3.org/2000/svg" xmlns:xlink="http://www.w3.org/1999/xlink" x="0px" y="0px"
	 viewBox="0 0 510.6 155.3" style="enable-background:new 0 0 510.6 155.3;" xml:space="preserve">
<style type="text/css">
	.st0{fill:#505B8E;}
	.st1{fill:#FDA172;}
	.st2{font-family:'EsmeraldaPro';}
	.st3{font-size:106.0652px;}
</style>
<g id="Calque_1">
	<g id="Logo_complet">
	</g>
	<g id="Layer_1">
		<path class="st0" d="M37.7,33.4c0,0,20.8,15.3,34.1,19.8v-7.9c0,0-17.5-10.6-18.5-11.6l7.4-3.5c0,0,7.9,5.4,11.4,4.4l-1-10.9
			c0,0,4-3.5,8.9-1.5v50.4l7.4-3.5V16.9L76.5,11C76.5,11,37.5,32.2,37.7,33.4z"/>
		<path class="st0" d="M133.8,69.7c0,0-23.5,10.7-33.9,20.1l6.9,3.9c0,0,17.8-10.1,19.2-10.5l-0.6,8.2c0,0-8.6,4.3-9.4,7.8l10,4.4
			c0,0,1.1,5.1-3,8.5L79,87.5l-0.6,8.2l45.7,25.5l10.5-6.6C134.6,114.5,135,70.1,133.8,69.7z"/>
		<path class="st0" d="M55.3,135.7c0,0,2.9-25.6,0-39.4l-6.8,4c0,0-0.4,20.5-0.8,21.9l-6.7-4.7c0,0,0.7-9.6-1.8-12.1l-8.9,6.3
			c0,0-5-1.7-5.7-7l43.6-25.2l-6.7-4.7L16.1,101l0.3,12.4C16.5,113.4,54.4,136.6,55.3,135.7z"/>
		<g>
			<g>
				<path class="st1" d="M97,23c0,0-3,25.6-0.2,39.4l6.9-3.9c0,0,0.5-20.5,0.9-21.8l6.7,4.7c0,0-0.8,9.6,1.8,12.1l8.9-6.3
					c0,0,5,1.7,5.7,7L84,79.2l6.7,4.7l45.5-26L136,45.5C135.8,45.6,98,22.2,97,23z"/>
				<path class="st1" d="M114.6,126.1c0,0-20.9-15.1-34.3-19.4l0.1,7.9c0,0,17.6,10.4,18.6,11.4l-7.4,3.5c0,0-8-5.4-11.4-4.3
					l1.1,10.9c0,0-3.9,3.5-8.9,1.6L72,87.2l-7.4,3.5l0.5,52.4l10.9,5.8C76.1,149,114.9,127.3,114.6,126.1z"/>
				<path class="st1" d="M16.6,90.2c0,0,23.8-10.4,34.5-19.8l-6.8-4c0,0-18.1,10-19.5,10.3l0.8-8.2c0,0,8.7-4.2,9.6-7.7l-9.9-4.6
					c0,0-1-5.2,3.3-8.5L72,73.1l0.8-8.2L27.6,38.4L17,44.9C17,44.9,15.4,89.8,16.6,90.2z"/>
			</g>
		</g>
	</g>
</g>
<g id="Layer_1_00000080174504568852712260000011292577381477568386_">
	<text transform="matrix(1 0 0 1 157 118.2354)" class="st0 st2 st3">Evauxie</text>
</g>
</svg>
