<?xml version="1.0" encoding="utf-8"?>
<!-- Generator: Adobe Illustrator 24.2.1, SVG Export Plug-In . SVG Version: 6.00 Build 0)  -->
<svg version="1.1" id="Logo_complet" xmlns="http://www.w3.org/2000/svg" xmlns:xlink="http://www.w3.org/1999/xlink" x="0px"
	 y="0px" viewBox="0 0 500 500" style="enable-background:new 0 0 500 500;" xml:space="preserve">
<style type="text/css">
	.st0{fill:#FDA172;stroke:#FDA172;stroke-width:3;stroke-miterlimit:10;}
	.st1{fill:#505B8E;stroke:#505B8E;stroke-width:3;stroke-miterlimit:10;}
	.st2{display:none;fill:#4F46E5;enable-background:new    ;}
	.st3{font-family:'MongolianBaiti';}
	.st4{font-size:98px;}
	.st5{fill:#505B8E;}
	.st6{font-size:113.4188px;}
	.st7{display:none;fill:none;stroke:#505B8E;stroke-miterlimit:10;enable-background:new    ;}
</style>
<g id="Symbole">
	<path class="st0" d="M245.4,157.3l-5.1,7.7l-61.1-39.2l-7.3,8.3l9,13.8l-18,5.8v10.5l26.1-6.8l6.6,8.1l-44.9,14l8.4-59.7l19.9-9.1
		L245.4,157.3z"/>
	<path class="st0" d="M262.4,176.4l-4.8-7.9l61.5-38.5l-4.6-10.1l-16.3,2.2c0.8-6.2,1.7-12.4,2.5-18.5l-9.4-4.6l-5,26.4l-10.2,2.6
		l6.5-46.7l50.4,33l-0.1,21.8L262.4,176.4z"/>
	<path class="st1" d="M259.8,160.4l-9.4,0.1L249.2,88l-11.1-1.4l-6.6,15.2l-14.6-11.9l-8.7,5.8l20,18l-3,10.1l-36.3-29.7l54.3-26.2
		l18.6,11.5L259.8,160.4z"/>
	<path class="st1" d="M242,188.4l5.1-7.7l60.9,39.2l7.3-8.4l-9-13.8l17.8-5.7v-10.5l-26.1,6.8l-6.6-8l45-14L328,226l-19.9,9.1
		L242,188.4z"/>
	<path class="st1" d="M224.9,169.3l4.8,7.9l-61.5,38.5l4.4,10.1l16.3-2.2c-0.8,6.2-1.7,12.4-2.5,18.6l9.4,4.6
		c1.7-8.8,3.3-17.7,5-26.4l10.1-2.6l-6.5,46.7l-50.1-33.3l0.3-21.8L224.9,169.3z"/>
	<path class="st0" d="M227.6,185.2l9.3-0.1c0.4,24.2,0.8,48.3,1.2,72.5l11.1,1.4l6.6-15.2l14.5,11.9l8.7-5.8l-20-18l3-10.1
		l36.6,29.6l-54.3,26.2l-18.6-11.2L227.6,185.2z"/>
</g>
<text transform="matrix(1 0 0 1 182.95 278.18)" class="st2 st3 st4">Evauxie</text>
<text transform="matrix(1 0 0 1 64.2 350.6498)" class="st5 st3 st6">Evauxie</text>
<text id="Texte" transform="matrix(1 0 0 1 182.95 278.18)" class="st7 st3 st4">Evauxie</text>
</svg>
