<?xml version="1.0" encoding="utf-8"?>
<!-- Generator: Adobe Illustrator 26.1.0, SVG Export Plug-In . SVG Version: 6.00 Build 0)  -->
<svg version="1.1" xmlns="http://www.w3.org/2000/svg" xmlns:xlink="http://www.w3.org/1999/xlink" x="0px" y="0px"
	 viewBox="0 0 510.6 155.3" style="enable-background:new 0 0 510.6 155.3;" xml:space="preserve">
<style type="text/css">
	.st0{fill:#FFFFFF;}
	.st1{font-family:'EsmeraldaPro';}
	.st2{font-size:106.0652px;}
</style>
<g id="Calque_1">
	<g id="Calque_2_00000117677708981229610310000012830840671134938029_">
	</g>
	<g id="Logo_complet">
	</g>
	<g id="Layer_1_00000173141888271058165990000010063408981896017843_">
		<path class="st0" d="M35.2,30.6c0,0,20.8,15.3,34.1,19.8v-7.9c0,0-17.5-10.6-18.5-11.6l7.4-3.5c0,0,7.9,5.4,11.4,4.4l-1-10.9
			c0,0,4-3.5,8.9-1.5v50.4l7.4-3.5V14.1L74,8.2C74,8.2,35,29.4,35.2,30.6z"/>
		<path class="st0" d="M131.3,66.9c0,0-23.5,10.7-33.9,20.1l6.9,3.9c0,0,17.8-10.1,19.2-10.5l-0.6,8.2c0,0-8.6,4.3-9.4,7.8l10,4.4
			c0,0,1.1,5.1-3,8.5l-44-24.6l-0.6,8.2l45.7,25.5l10.5-6.6C132.1,111.7,132.5,67.3,131.3,66.9z"/>
		<path class="st0" d="M52.8,132.9c0,0,2.9-25.6,0-39.4l-6.8,4c0,0-0.4,20.5-0.8,21.9l-6.7-4.7c0,0,0.7-9.6-1.8-12.1l-8.9,6.3
			c0,0-5-1.7-5.7-7l43.6-25.2L59,72L13.6,98.2l0.3,12.4C14,110.6,51.9,133.8,52.8,132.9z"/>
		<g>
			<g>
				<path class="st0" d="M94.5,20.2c0,0-3,25.6-0.2,39.4l6.9-3.9c0,0,0.5-20.5,0.9-21.8l6.7,4.7c0,0-0.8,9.6,1.8,12.1l8.9-6.3
					c0,0,5,1.7,5.7,7l-43.7,25l6.7,4.7l45.5-26l-0.2-12.4C133.3,42.8,95.5,19.4,94.5,20.2z"/>
				<path class="st0" d="M112.1,123.3c0,0-20.9-15.1-34.3-19.4l0.1,7.9c0,0,17.6,10.4,18.6,11.4l-7.4,3.5c0,0-8-5.4-11.4-4.3
					l1.1,10.9c0,0-3.9,3.5-8.9,1.6l-0.4-50.5l-7.4,3.5l0.5,52.4l10.9,5.8C73.6,146.2,112.4,124.5,112.1,123.3z"/>
				<path class="st0" d="M14.1,87.4c0,0,23.8-10.4,34.5-19.8l-6.8-4c0,0-18.1,10-19.5,10.3l0.8-8.2c0,0,8.7-4.2,9.6-7.7l-9.9-4.6
					c0,0-1-5.2,3.3-8.5l43.4,25.4l0.8-8.2L25.1,35.6l-10.6,6.5C14.5,42.1,12.9,87,14.1,87.4z"/>
			</g>
		</g>
	</g>
</g>
<g id="Layer_1">
	<text transform="matrix(1 0 0 1 154.4782 115.4731)" class="st0 st1 st2">Evauxie</text>
</g>
</svg>
