<?xml version="1.0" encoding="utf-8"?>
<!-- Generator: Adobe Illustrator 26.1.0, SVG Export Plug-In . SVG Version: 6.00 Build 0)  -->
<svg version="1.1" xmlns="http://www.w3.org/2000/svg" xmlns:xlink="http://www.w3.org/1999/xlink" x="0px" y="0px"
	 viewBox="0 0 500 500" style="enable-background:new 0 0 500 500;" xml:space="preserve">
<style type="text/css">
	.st0{display:none;fill:#4F46E5;enable-background:new    ;}
	.st1{font-family:'MongolianBaiti';}
	.st2{font-size:98px;}
	.st3{display:none;fill:none;stroke:#505B8E;stroke-miterlimit:10;enable-background:new    ;}
	.st4{fill:#505B8E;}
	.st5{fill:#FDA172;}
	.st6{font-family:'EsmeraldaPro';}
	.st7{font-size:107.8353px;}
</style>
<g id="Calque_1">
	<g id="Logo_complet">
		<text transform="matrix(1 0 0 1 182.95 278.18)" class="st0 st1 st2">Evauxie</text>
		<text id="Texte" transform="matrix(1 0 0 1 182.95 278.18)" class="st3 st1 st2">Evauxie</text>
	</g>
	<g id="Layer_1">
		<path class="st4" d="M199.9,135.6c0,0,23.3,17.2,38.2,22.2v-8.9c0,0-19.7-11.9-20.8-13l8.3-3.9c0,0,8.9,6.1,12.7,5l-1.1-12.2
			c0,0,4.4-3.9,10-1.7v56.6l8.3-3.9V117l-12.2-6.7C243.4,110.4,199.6,134.2,199.9,135.6z"/>
		<path class="st4" d="M307.8,176.3c0,0-26.3,12-38,22.6l7.7,4.3c0,0,20-11.3,21.5-11.8l-0.6,9.2c0,0-9.7,4.7-10.5,8.7l11.2,5
			c0,0,1.2,5.8-3.4,9.5l-49.4-27.6l-0.6,9.2l51.4,28.7l11.8-7.4C308.6,226.6,309.1,176.7,307.8,176.3z"/>
		<path class="st4" d="M219.6,250.3c0,0,3.2-28.7,0.1-44.2l-7.6,4.4c0,0-0.5,23-0.9,24.6l-7.5-5.2c0,0,0.8-10.7-2.1-13.5l-10,7.1
			c0,0-5.6-1.9-6.4-7.8l48.9-28.3l-7.5-5.2l-50.9,29.4l0.3,13.9C176,225.3,218.6,251.3,219.6,250.3z"/>
		<g>
			<g>
				<path class="st5" d="M266.5,123.9c0,0-3.4,28.7-0.2,44.2l7.7-4.4c0,0,0.6-23,1-24.6l7.5,5.3c0,0-0.9,10.7,2,13.5l10.1-7
					c0,0,5.6,1.9,6.4,7.8l-49.1,28.1l7.5,5.3l51-29.1l-0.2-13.9C309.9,149.2,267.5,123,266.5,123.9z"/>
				<path class="st5" d="M286.2,239.6c0,0-23.5-17-38.5-21.8l0.1,8.9c0,0,19.8,11.8,20.9,12.8l-8.3,3.9c0,0-8.9-6-12.8-4.8l1.2,12.2
					c0,0-4.4,3.9-10,1.8l-0.6-56.6l-8.3,3.9l0.6,58.8l12.2,6.5C242.9,265.2,286.5,240.9,286.2,239.6z"/>
				<path class="st5" d="M176.2,199.2c0,0,26.7-11.7,38.7-22.2l-7.6-4.5c0,0-20.4,11.2-21.9,11.6l0.9-9.3c0,0,9.8-4.7,10.8-8.6
					l-11.1-5.2c0,0-1-5.9,3.7-9.6l48.9,28.6l0.9-9.3l-50.7-29.7l-12,7.3C176.6,148.4,174.8,198.7,176.2,199.2z"/>
			</g>
		</g>
	</g>
</g>
<g id="Layer_1_00000023997860587777285710000009020699083769962137_">
	<text transform="matrix(1 0 0 1 73.7686 346.2523)" class="st4 st6 st7">Evauxie</text>
</g>
</svg>
